# Blender v2.79 (sub 0) OBJ File: ''
# www.blender.org
mtllib stalker.mtl
o stalker
v -0.440517 0.626769 0.000000
v -0.546040 1.146772 0.000000
v -0.546040 0.782530 0.000000
v -0.329694 1.430984 0.000000
v 0.192922 1.333473 0.000000
v -0.270747 1.569932 0.000000
v -0.045464 1.861951 0.000000
v -0.107142 1.997128 0.000000
v -0.209579 1.956523 0.000000
v -0.209579 1.829621 0.000000
v -0.014111 1.831112 0.000000
v -0.242473 1.768765 0.000000
v 0.136178 1.692028 0.000000
v 0.088172 1.766350 0.000000
v 0.165783 1.607323 0.000000
v 0.121067 1.726773 0.000000
v 0.311343 1.238078 0.000000
v 0.412345 1.001415 0.000000
v -0.057799 1.972457 0.000000
v 0.179764 1.514395 0.000000
v -0.468643 1.323615 0.000000
v 0.412345 0.000000 0.000000
v 0.205257 0.256987 0.000000
v -0.412345 0.000000 0.000000
v -0.366504 0.316734 0.000000
v 0.245553 0.376231 0.000000
v 0.347528 0.692845 0.000000
v 0.401804 0.119651 0.000000
v -0.458188 0.053534 0.000000
v 0.303942 0.376231 0.000000
v -0.440517 0.334004 0.000000
v 0.412345 0.797286 0.000000
vt 0.110105 0.313835
vt 0.000000 0.574210
vt 0.000000 0.391828
vt 0.225740 0.716521
vt 0.771049 0.667695
vt 0.287246 0.786095
vt 0.522312 0.932314
vt 0.457956 1.000000
vt 0.351071 0.979668
vt 0.351071 0.916126
vt 0.555026 0.916873
vt 0.316748 0.885654
vt 0.711841 0.847231
vt 0.661751 0.884445
vt 0.742732 0.804817
vt 0.696074 0.864628
vt 0.894612 0.619929
vt 1.000000 0.501427
vt 0.509441 0.987647
vt 0.757320 0.758286
vt 0.080758 0.662759
vt 1.000000 0.000000
vt 0.783920 0.128678
vt 0.139500 0.000000
vt 0.187332 0.158595
vt 0.825966 0.188386
vt 0.932368 0.346921
vt 0.989001 0.059912
vt 0.091667 0.026805
vt 0.886890 0.188386
vt 0.110105 0.167242
vt 1.000000 0.399216
vn -0.0000 -0.0000 1.0000
usemtl Material.001
s 1
f 1/1/1 2/2/1 3/3/1
f 4/4/1 5/5/1 6/6/1
f 7/7/1 8/8/1 9/9/1
f 7/7/1 9/9/1 10/10/1
f 7/7/1 10/10/1 11/11/1
f 10/10/1 12/12/1 11/11/1
f 12/12/1 6/6/1 11/11/1
f 13/13/1 14/14/1 6/6/1
f 13/13/1 6/6/1 15/15/1
f 2/2/1 5/5/1 4/4/1
f 16/16/1 14/14/1 13/13/1
f 17/17/1 5/5/1 18/18/1
f 7/7/1 19/19/1 8/8/1
f 6/6/1 14/14/1 11/11/1
f 6/6/1 20/20/1 15/15/1
f 5/5/1 20/20/1 6/6/1
f 2/2/1 4/4/1 21/21/1
f 22/22/1 23/23/1 24/24/1
f 25/25/1 23/23/1 26/26/1
f 24/24/1 23/23/1 25/25/1
f 1/1/1 26/26/1 27/27/1
f 25/25/1 26/26/1 1/1/1
f 22/22/1 28/28/1 23/23/1
f 24/24/1 25/25/1 29/29/1
f 26/26/1 30/30/1 27/27/1
f 25/25/1 1/1/1 31/31/1
f 5/5/1 27/27/1 18/18/1
f 1/1/1 27/27/1 5/5/1
f 1/1/1 5/5/1 2/2/1
f 27/27/1 32/32/1 18/18/1
